<svg xmlns="http://www.w3.org/2000/svg" xmlns:xlink="http://www.w3.org/1999/xlink" width="243.502" height="62.809" viewBox="0 0 243.502 62.809">
  <defs>
    <linearGradient id="linear-gradient" x1="0.006" y1="1.012" x2="0.959" y2="0.033" gradientUnits="objectBoundingBox">
      <stop offset="0" stop-color="#f1c032"/>
      <stop offset="0.089" stop-color="#efb037"/>
      <stop offset="0.263" stop-color="#e88544"/>
      <stop offset="0.475" stop-color="#df4a56"/>
      <stop offset="0.579" stop-color="#cb485f"/>
      <stop offset="0.789" stop-color="#994275"/>
      <stop offset="1" stop-color="#603c8d"/>
    </linearGradient>
  </defs>
  <g id="vector-logo_1_" data-name="vector-logo (1)" transform="translate(-52.21 -68.66)">
    <g id="Group_576" data-name="Group 576" transform="translate(130.337 83.817)">
      <g id="Group_574" data-name="Group 574" transform="translate(0 0)">
        <path id="Path_221" data-name="Path 221" d="M256.241,134.8v.295H248.71l-9.878-14.281-5.574,6.016v8.265H227V102.57h6.258v16.283l14.379-16.283h8.117l-12.716,13.74Z" transform="translate(-227 -102.57)" fill="#0f1a57"/>
        <path id="Path_222" data-name="Path 222" d="M312.111,119.744v5.869H310.3c-5.721,0-7.335,3.424-7.335,9.485v9.485H296.9V120.133h5.918v5.672c1.269-3.62,3.768-6.065,8.117-6.065h1.176Z" transform="translate(-265.657 -112.065)" fill="#0f1a57"/>
        <path id="Path_223" data-name="Path 223" d="M331.26,131.838c0-6.946,3.911-12.958,13.056-12.958s13.105,6.065,13.105,12.958c0,7-3.96,13.056-13.105,13.056S331.26,138.878,331.26,131.838Zm13.056,8.265c4.841,0,7-2.248,7-8.215s-2.15-8.215-7-8.215-6.991,2.248-6.991,8.215S339.475,140.1,344.316,140.1Z" transform="translate(-284.659 -111.59)" fill="#0f1a57"/>
        <path id="Path_224" data-name="Path 224" d="M421.85,131.887c0,7.089-3.375,13.007-11.3,13.007-4.3,0-7.237-1.761-8.9-4.693v13.691H395.59V119.662h6.065v3.862c1.663-2.932,4.595-4.644,8.9-4.644C418.48,118.876,421.85,124.744,421.85,131.887Zm-6.061,0c0-5.574-1.859-8.215-6.9-8.215-4.841,0-7.237,2.592-7.237,8.215s2.4,8.215,7.237,8.215C413.929,140.1,415.789,137.461,415.789,131.887Z" transform="translate(-320.235 -111.59)" fill="#0f1a57"/>
        <path id="Path_225" data-name="Path 225" d="M486.41,131.887c0,7.089-3.375,13.007-11.295,13.007-4.3,0-7.237-1.761-8.9-4.693v13.691H460.15V119.662h6.065v3.862c1.663-2.932,4.595-4.644,8.9-4.644C483.035,118.876,486.41,124.744,486.41,131.887Zm-6.065,0c0-5.574-1.859-8.215-6.9-8.215-4.841,0-7.237,2.592-7.237,8.215s2.4,8.215,7.237,8.215C478.485,140.1,480.344,137.461,480.344,131.887Z" transform="translate(-355.938 -111.59)" fill="#0f1a57"/>
        <path id="Path_226" data-name="Path 226" d="M523.16,137.542c0-3.911,1.859-6.5,7.777-7.482l5.918-1.028c2.3-.393,3.227-1.077,3.227-2.642,0-1.958-1.077-3.227-4.841-3.227-3.62,0-5.382,1.466-5.574,4.206H523.7c.1-5.185,4.206-8.609,11.393-8.609,7.089,0,10.562,3.129,10.562,7.97v11.344c0,2.056.1,3.764.295,5.967H540.57a46.734,46.734,0,0,1-.295-5.377c-1.077,3.227-3.862,6.016-9,6.016C526.338,144.68,523.16,141.94,523.16,137.542Zm16.922-5.234v-1.319a10.146,10.146,0,0,1-4.206,1.663l-2.691.635c-2.838.684-4.009,1.712-4.009,3.768,0,2.15,1.614,3.276,3.862,3.276C537.539,140.326,540.082,137,540.082,132.308Z" transform="translate(-390.784 -111.523)" fill="#0f1a57"/>
      </g>
      <g id="Group_575" data-name="Group 575" transform="translate(156.964 7.858)">
        <path id="Path_227" data-name="Path 227" d="M586.582,124.387h-.809v-3.661l-1.207,3.661h-1l-1.207-3.661v3.661h-.818V120.8h-1.117v3.589H579.6V120.8H578.17v-.648h4.774l1.122,3.455,1.126-3.455h1.377v4.237Z" transform="translate(-578.17 -120.15)" fill="#0f1a57"/>
      </g>
    </g>
    <g id="Group_578" data-name="Group 578" transform="translate(52.21 68.66)">
      <g id="Group_577" data-name="Group 577">
        <path id="Path_228" data-name="Path 228" d="M110.527,68.66H89.264A4.634,4.634,0,0,0,84.629,73.3V94.558a4.492,4.492,0,0,0,4.492,4.492,25.893,25.893,0,0,0,25.893-25.893h0A4.487,4.487,0,0,0,110.527,68.66ZM89.175,101.137a4.483,4.483,0,0,0-4.483,4.483v21.222a4.624,4.624,0,0,0,4.626,4.626H110.54a4.483,4.483,0,0,0,4.483-4.483h0A25.853,25.853,0,0,0,89.175,101.137ZM77.151,68.66h-19.5A5.442,5.442,0,0,0,52.21,74.1V93.6a5.442,5.442,0,0,0,5.444,5.444h19.5A5.442,5.442,0,0,0,82.6,93.6V74.1A5.442,5.442,0,0,0,77.151,68.66Zm-9.775,32.477A15.166,15.166,0,1,0,82.542,116.3,15.165,15.165,0,0,0,67.376,101.137Z" transform="translate(-52.21 -68.66)" fill="url(#linear-gradient)"/>
      </g>
    </g>
  </g>
</svg>
